<?xml version="1.0"?>
<svg xmlns="http://www.w3.org/2000/svg" xmlns:xlink="http://www.w3.org/1999/xlink" viewBox="0 0 512 512" width="512" height="512"><linearGradient id="a" gradientUnits="userSpaceOnUse" x1="256" x2="256" y1="9.879" y2="484.391"><stop offset="0" stop-color="#00efd1"/><stop offset="1" stop-color="#00acea"/></linearGradient><g fill="url(#a)"><path d="m212.208 320h87.584a10 10 0 0 0 0-20h-87.584a10 10 0 1 0 0 20z"/><path d="m341.5 341h-171a10 10 0 0 0 0 20h171a10 10 0 0 0 0-20z"/><path d="m341.5 383h-171a10 10 0 0 0 0 20h171a10 10 0 0 0 0-20z"/><path d="m402.813 17.293a9.857 9.857 0 0 0 -10.9 2.555l-21.313 23.252-21.283-23.246a9.98 9.98 0 0 0 -14.726 0l-21.3 23.239-21.3-23.239a10 10 0 0 0 -14.742 0l-21.3 23.239-21.3-23.239a10 10 0 0 0 -14.743 0l-21.306 23.239-21.3-23.239a10 10 0 0 0 -14.743 0l-21.3 23.231-21.247-23.225a9.716 9.716 0 0 0 -10.81-2.57 9.834 9.834 0 0 0 -6.2 9.321v458.778a9.8 9.8 0 0 0 17.089 6.763l21.311-23.252 21.286 23.246a9.98 9.98 0 0 0 14.726 0l21.3-23.239 21.3 23.239a10 10 0 0 0 14.742 0l21.3-23.239 21.3 23.239a10 10 0 0 0 14.743 0l21.3-23.239 21.3 23.239a10 10 0 0 0 14.743 0l21.295-23.231 21.255 23.225a10 10 0 0 0 7.38 3.249 9.053 9.053 0 0 0 3.435-.679 9.834 9.834 0 0 0 6.195-9.321v-458.778a9.834 9.834 0 0 0 -6.187-9.318zm-13.813 442.353-11.06-12.346a9.658 9.658 0 0 0 -7.19-3.3 10.052 10.052 0 0 0 -7.371 3.3l-21.3 23.266-21.3-23.225a10 10 0 0 0 -14.743.01l-21.3 23.24-21.3-23.237a10 10 0 0 0 -14.743 0l-21.3 23.239-21.3-23.238a10 10 0 0 0 -14.744 0l-21.3 23.238-21.3-23.293a10.047 10.047 0 0 0 -7.367-3.3 9.653 9.653 0 0 0 -7.181 3.291l-11.201 12.424v-407.361l11.06 12.346a9.658 9.658 0 0 0 7.19 3.3 10.052 10.052 0 0 0 7.371-3.3l21.3-23.266 21.3 23.225a10 10 0 0 0 14.743-.01l21.3-23.24 21.3 23.237a10 10 0 0 0 14.743 0l21.3-23.239 21.3 23.238a10 10 0 0 0 14.744 0l21.3-23.238 21.3 23.293a10.047 10.047 0 0 0 7.367 3.3 9.653 9.653 0 0 0 7.181-3.291l11.201-12.424z"/><path d="m256 210.288a12.588 12.588 0 0 1 -12.574-12.573 10 10 0 1 0 -20 0 32.626 32.626 0 0 0 22.574 31v6.435a10 10 0 0 0 20 0v-6.435a32.571 32.571 0 0 0 -10-63.57 12.6 12.6 0 1 1 12.574-12.575 10 10 0 0 0 20 0 32.674 32.674 0 0 0 -22.574-31.05v-6.281a10 10 0 0 0 -20 0v6.281a32.6 32.6 0 0 0 10 63.621 12.574 12.574 0 1 1 0 25.147z"/></g></svg>
